<?xml version="1.0" encoding="UTF-8"?>
<svg xmlns="http://www.w3.org/2000/svg" viewBox="-4 -6 695 101" width="695" height="101" role="img" aria-label="A golf ball putts across a contribution grid and drops into the hole"><title>Putt</title>
<g id="cells">
<rect x="0" y="0" width="11" height="11" rx="2" ry="2" fill="#ebedf0"/>
<rect x="13" y="0" width="11" height="11" rx="2" ry="2" fill="#9be9a8"/>
<rect x="26" y="0" width="11" height="11" rx="2" ry="2" fill="#ebedf0"/>
<rect x="39" y="0" width="11" height="11" rx="2" ry="2" fill="#ebedf0"/>
<rect x="52" y="0" width="11" height="11" rx="2" ry="2" fill="#ebedf0"/>
<rect x="65" y="0" width="11" height="11" rx="2" ry="2" fill="#ebedf0"/>
<rect x="78" y="0" width="11" height="11" rx="2" ry="2" fill="#ebedf0"/>
<rect x="91" y="0" width="11" height="11" rx="2" ry="2" fill="#ebedf0"/>
<rect x="104" y="0" width="11" height="11" rx="2" ry="2" fill="#ebedf0"/>
<rect x="117" y="0" width="11" height="11" rx="2" ry="2" fill="#ebedf0"/>
<rect x="130" y="0" width="11" height="11" rx="2" ry="2" fill="#9be9a8"/>
<rect x="143" y="0" width="11" height="11" rx="2" ry="2" fill="#9be9a8"/>
<rect x="156" y="0" width="11" height="11" rx="2" ry="2" fill="#ebedf0"/>
<rect x="169" y="0" width="11" height="11" rx="2" ry="2" fill="#ebedf0"/>
<rect x="182" y="0" width="11" height="11" rx="2" ry="2" fill="#ebedf0"/>
<rect x="195" y="0" width="11" height="11" rx="2" ry="2" fill="#ebedf0"/>
<rect x="208" y="0" width="11" height="11" rx="2" ry="2" fill="#ebedf0"/>
<rect x="221" y="0" width="11" height="11" rx="2" ry="2" fill="#ebedf0"/>
<rect x="234" y="0" width="11" height="11" rx="2" ry="2" fill="#ebedf0"/>
<rect x="247" y="0" width="11" height="11" rx="2" ry="2" fill="#ebedf0"/>
<rect x="260" y="0" width="11" height="11" rx="2" ry="2" fill="#ebedf0"/>
<rect x="273" y="0" width="11" height="11" rx="2" ry="2" fill="#ebedf0"/>
<rect x="286" y="0" width="11" height="11" rx="2" ry="2" fill="#ebedf0"/>
<rect x="299" y="0" width="11" height="11" rx="2" ry="2" fill="#ebedf0"/>
<rect x="312" y="0" width="11" height="11" rx="2" ry="2" fill="#ebedf0"/>
<rect x="325" y="0" width="11" height="11" rx="2" ry="2" fill="#40c463"/>
<rect x="338" y="0" width="11" height="11" rx="2" ry="2" fill="#30a14e"/>
<rect x="351" y="0" width="11" height="11" rx="2" ry="2" fill="#ebedf0"/>
<rect x="364" y="0" width="11" height="11" rx="2" ry="2" fill="#9be9a8"/>
<rect x="377" y="0" width="11" height="11" rx="2" ry="2" fill="#ebedf0"/>
<rect x="390" y="0" width="11" height="11" rx="2" ry="2" fill="#ebedf0"/>
<rect x="403" y="0" width="11" height="11" rx="2" ry="2" fill="#ebedf0"/>
<rect x="416" y="0" width="11" height="11" rx="2" ry="2" fill="#ebedf0"/>
<rect x="429" y="0" width="11" height="11" rx="2" ry="2" fill="#9be9a8"/>
<rect x="442" y="0" width="11" height="11" rx="2" ry="2" fill="#ebedf0"/>
<rect x="455" y="0" width="11" height="11" rx="2" ry="2" fill="#ebedf0"/>
<rect x="468" y="0" width="11" height="11" rx="2" ry="2" fill="#40c463"/>
<rect x="481" y="0" width="11" height="11" rx="2" ry="2" fill="#ebedf0"/>
<rect x="494" y="0" width="11" height="11" rx="2" ry="2" fill="#9be9a8"/>
<rect x="507" y="0" width="11" height="11" rx="2" ry="2" fill="#40c463"/>
<rect x="520" y="0" width="11" height="11" rx="2" ry="2" fill="#40c463"/>
<rect x="533" y="0" width="11" height="11" rx="2" ry="2" fill="#9be9a8"/>
<rect x="546" y="0" width="11" height="11" rx="2" ry="2" fill="#40c463"/>
<rect x="559" y="0" width="11" height="11" rx="2" ry="2" fill="#9be9a8"/>
<rect x="572" y="0" width="11" height="11" rx="2" ry="2" fill="#30a14e"/>
<rect x="585" y="0" width="11" height="11" rx="2" ry="2" fill="#ebedf0"/>
<rect x="598" y="0" width="11" height="11" rx="2" ry="2" fill="#9be9a8"/>
<rect x="611" y="0" width="11" height="11" rx="2" ry="2" fill="#ebedf0"/>
<rect x="624" y="0" width="11" height="11" rx="2" ry="2" fill="#ebedf0"/>
<rect x="637" y="0" width="11" height="11" rx="2" ry="2" fill="#30a14e"/>
<rect x="650" y="0" width="11" height="11" rx="2" ry="2" fill="#ebedf0"/>
<rect x="663" y="0" width="11" height="11" rx="2" ry="2" fill="#ebedf0"/>
<rect x="676" y="0" width="11" height="11" rx="2" ry="2" fill="#9be9a8"/>
<rect x="0" y="13" width="11" height="11" rx="2" ry="2" fill="#ebedf0"/>
<rect x="13" y="13" width="11" height="11" rx="2" ry="2" fill="#ebedf0"/>
<rect x="26" y="13" width="11" height="11" rx="2" ry="2" fill="#ebedf0"/>
<rect x="39" y="13" width="11" height="11" rx="2" ry="2" fill="#40c463"/>
<rect x="52" y="13" width="11" height="11" rx="2" ry="2" fill="#ebedf0"/>
<rect x="65" y="13" width="11" height="11" rx="2" ry="2" fill="#ebedf0"/>
<rect x="78" y="13" width="11" height="11" rx="2" ry="2" fill="#40c463"/>
<rect x="91" y="13" width="11" height="11" rx="2" ry="2" fill="#9be9a8"/>
<rect x="104" y="13" width="11" height="11" rx="2" ry="2" fill="#ebedf0"/>
<rect x="117" y="13" width="11" height="11" rx="2" ry="2" fill="#ebedf0"/>
<rect x="130" y="13" width="11" height="11" rx="2" ry="2" fill="#ebedf0"/>
<rect x="143" y="13" width="11" height="11" rx="2" ry="2" fill="#9be9a8"/>
<rect x="156" y="13" width="11" height="11" rx="2" ry="2" fill="#ebedf0"/>
<rect x="169" y="13" width="11" height="11" rx="2" ry="2" fill="#ebedf0"/>
<rect x="182" y="13" width="11" height="11" rx="2" ry="2" fill="#ebedf0"/>
<rect x="195" y="13" width="11" height="11" rx="2" ry="2" fill="#ebedf0"/>
<rect x="208" y="13" width="11" height="11" rx="2" ry="2" fill="#ebedf0"/>
<rect x="221" y="13" width="11" height="11" rx="2" ry="2" fill="#ebedf0"/>
<rect x="234" y="13" width="11" height="11" rx="2" ry="2" fill="#ebedf0"/>
<rect x="247" y="13" width="11" height="11" rx="2" ry="2" fill="#ebedf0"/>
<rect x="260" y="13" width="11" height="11" rx="2" ry="2" fill="#9be9a8"/>
<rect x="273" y="13" width="11" height="11" rx="2" ry="2" fill="#ebedf0"/>
<rect x="286" y="13" width="11" height="11" rx="2" ry="2" fill="#ebedf0"/>
<rect x="299" y="13" width="11" height="11" rx="2" ry="2" fill="#ebedf0"/>
<rect x="312" y="13" width="11" height="11" rx="2" ry="2" fill="#30a14e"/>
<rect x="325" y="13" width="11" height="11" rx="2" ry="2" fill="#ebedf0"/>
<rect x="338" y="13" width="11" height="11" rx="2" ry="2" fill="#ebedf0"/>
<rect x="351" y="13" width="11" height="11" rx="2" ry="2" fill="#40c463"/>
<rect x="364" y="13" width="11" height="11" rx="2" ry="2" fill="#ebedf0"/>
<rect x="377" y="13" width="11" height="11" rx="2" ry="2" fill="#30a14e"/>
<rect x="390" y="13" width="11" height="11" rx="2" ry="2" fill="#9be9a8"/>
<rect x="403" y="13" width="11" height="11" rx="2" ry="2" fill="#ebedf0"/>
<rect x="416" y="13" width="11" height="11" rx="2" ry="2" fill="#ebedf0"/>
<rect x="429" y="13" width="11" height="11" rx="2" ry="2" fill="#ebedf0"/>
<rect x="442" y="13" width="11" height="11" rx="2" ry="2" fill="#ebedf0"/>
<rect x="455" y="13" width="11" height="11" rx="2" ry="2" fill="#ebedf0"/>
<rect x="468" y="13" width="11" height="11" rx="2" ry="2" fill="#30a14e"/>
<rect x="481" y="13" width="11" height="11" rx="2" ry="2" fill="#ebedf0"/>
<rect x="494" y="13" width="11" height="11" rx="2" ry="2" fill="#ebedf0"/>
<rect x="507" y="13" width="11" height="11" rx="2" ry="2" fill="#ebedf0"/>
<rect x="520" y="13" width="11" height="11" rx="2" ry="2" fill="#40c463"/>
<rect x="533" y="13" width="11" height="11" rx="2" ry="2" fill="#40c463"/>
<rect x="546" y="13" width="11" height="11" rx="2" ry="2" fill="#30a14e"/>
<rect x="559" y="13" width="11" height="11" rx="2" ry="2" fill="#ebedf0"/>
<rect x="572" y="13" width="11" height="11" rx="2" ry="2" fill="#40c463"/>
<rect x="585" y="13" width="11" height="11" rx="2" ry="2" fill="#ebedf0"/>
<rect x="598" y="13" width="11" height="11" rx="2" ry="2" fill="#ebedf0"/>
<rect x="611" y="13" width="11" height="11" rx="2" ry="2" fill="#ebedf0"/>
<rect x="624" y="13" width="11" height="11" rx="2" ry="2" fill="#ebedf0"/>
<rect x="637" y="13" width="11" height="11" rx="2" ry="2" fill="#ebedf0"/>
<rect x="650" y="13" width="11" height="11" rx="2" ry="2" fill="#216e39"/>
<rect x="663" y="13" width="11" height="11" rx="2" ry="2" fill="#ebedf0"/>
<rect x="676" y="13" width="11" height="11" rx="2" ry="2" fill="#216e39"/>
<rect x="0" y="26" width="11" height="11" rx="2" ry="2" fill="#ebedf0"/>
<rect x="13" y="26" width="11" height="11" rx="2" ry="2" fill="#ebedf0"/>
<rect x="26" y="26" width="11" height="11" rx="2" ry="2" fill="#ebedf0"/>
<rect x="39" y="26" width="11" height="11" rx="2" ry="2" fill="#40c463"/>
<rect x="52" y="26" width="11" height="11" rx="2" ry="2" fill="#ebedf0"/>
<rect x="65" y="26" width="11" height="11" rx="2" ry="2" fill="#ebedf0"/>
<rect x="78" y="26" width="11" height="11" rx="2" ry="2" fill="#ebedf0"/>
<rect x="91" y="26" width="11" height="11" rx="2" ry="2" fill="#ebedf0"/>
<rect x="104" y="26" width="11" height="11" rx="2" ry="2" fill="#ebedf0"/>
<rect x="117" y="26" width="11" height="11" rx="2" ry="2" fill="#9be9a8"/>
<rect x="130" y="26" width="11" height="11" rx="2" ry="2" fill="#ebedf0"/>
<rect x="143" y="26" width="11" height="11" rx="2" ry="2" fill="#ebedf0"/>
<rect x="156" y="26" width="11" height="11" rx="2" ry="2" fill="#ebedf0"/>
<rect x="169" y="26" width="11" height="11" rx="2" ry="2" fill="#ebedf0"/>
<rect x="182" y="26" width="11" height="11" rx="2" ry="2" fill="#ebedf0"/>
<rect x="195" y="26" width="11" height="11" rx="2" ry="2" fill="#ebedf0"/>
<rect x="208" y="26" width="11" height="11" rx="2" ry="2" fill="#ebedf0"/>
<rect x="221" y="26" width="11" height="11" rx="2" ry="2" fill="#ebedf0"/>
<rect x="234" y="26" width="11" height="11" rx="2" ry="2" fill="#9be9a8"/>
<rect x="247" y="26" width="11" height="11" rx="2" ry="2" fill="#ebedf0"/>
<rect x="260" y="26" width="11" height="11" rx="2" ry="2" fill="#ebedf0"/>
<rect x="273" y="26" width="11" height="11" rx="2" ry="2" fill="#40c463"/>
<rect x="286" y="26" width="11" height="11" rx="2" ry="2" fill="#ebedf0"/>
<rect x="299" y="26" width="11" height="11" rx="2" ry="2" fill="#40c463"/>
<rect x="312" y="26" width="11" height="11" rx="2" ry="2" fill="#40c463"/>
<rect x="325" y="26" width="11" height="11" rx="2" ry="2" fill="#30a14e"/>
<rect x="338" y="26" width="11" height="11" rx="2" ry="2" fill="#9be9a8"/>
<rect x="351" y="26" width="11" height="11" rx="2" ry="2" fill="#9be9a8"/>
<rect x="364" y="26" width="11" height="11" rx="2" ry="2" fill="#9be9a8"/>
<rect x="377" y="26" width="11" height="11" rx="2" ry="2" fill="#ebedf0"/>
<rect x="390" y="26" width="11" height="11" rx="2" ry="2" fill="#ebedf0"/>
<rect x="403" y="26" width="11" height="11" rx="2" ry="2" fill="#ebedf0"/>
<rect x="416" y="26" width="11" height="11" rx="2" ry="2" fill="#ebedf0"/>
<rect x="429" y="26" width="11" height="11" rx="2" ry="2" fill="#ebedf0"/>
<rect x="442" y="26" width="11" height="11" rx="2" ry="2" fill="#ebedf0"/>
<rect x="455" y="26" width="11" height="11" rx="2" ry="2" fill="#ebedf0"/>
<rect x="468" y="26" width="11" height="11" rx="2" ry="2" fill="#ebedf0"/>
<rect x="481" y="26" width="11" height="11" rx="2" ry="2" fill="#9be9a8"/>
<rect x="494" y="26" width="11" height="11" rx="2" ry="2" fill="#30a14e"/>
<rect x="507" y="26" width="11" height="11" rx="2" ry="2" fill="#40c463"/>
<rect x="520" y="26" width="11" height="11" rx="2" ry="2" fill="#ebedf0"/>
<rect x="533" y="26" width="11" height="11" rx="2" ry="2" fill="#9be9a8"/>
<rect x="546" y="26" width="11" height="11" rx="2" ry="2" fill="#9be9a8"/>
<rect x="559" y="26" width="11" height="11" rx="2" ry="2" fill="#ebedf0"/>
<rect x="572" y="26" width="11" height="11" rx="2" ry="2" fill="#9be9a8"/>
<rect x="585" y="26" width="11" height="11" rx="2" ry="2" fill="#9be9a8"/>
<rect x="598" y="26" width="11" height="11" rx="2" ry="2" fill="#ebedf0"/>
<rect x="611" y="26" width="11" height="11" rx="2" ry="2" fill="#ebedf0"/>
<rect x="624" y="26" width="11" height="11" rx="2" ry="2" fill="#30a14e"/>
<rect x="637" y="26" width="11" height="11" rx="2" ry="2" fill="#ebedf0"/>
<rect x="650" y="26" width="11" height="11" rx="2" ry="2" fill="#40c463"/>
<rect x="663" y="26" width="11" height="11" rx="2" ry="2" fill="#9be9a8"/>
<rect x="676" y="26" width="11" height="11" rx="2" ry="2" fill="#ebedf0"/>
<rect x="0" y="39" width="11" height="11" rx="2" ry="2" fill="#ebedf0"/>
<rect x="13" y="39" width="11" height="11" rx="2" ry="2" fill="#ebedf0"/>
<rect x="26" y="39" width="11" height="11" rx="2" ry="2" fill="#ebedf0"/>
<rect x="39" y="39" width="11" height="11" rx="2" ry="2" fill="#ebedf0"/>
<rect x="52" y="39" width="11" height="11" rx="2" ry="2" fill="#ebedf0"/>
<rect x="65" y="39" width="11" height="11" rx="2" ry="2" fill="#ebedf0"/>
<rect x="78" y="39" width="11" height="11" rx="2" ry="2" fill="#9be9a8"/>
<rect x="91" y="39" width="11" height="11" rx="2" ry="2" fill="#ebedf0"/>
<rect x="104" y="39" width="11" height="11" rx="2" ry="2" fill="#ebedf0"/>
<rect x="117" y="39" width="11" height="11" rx="2" ry="2" fill="#ebedf0"/>
<rect x="130" y="39" width="11" height="11" rx="2" ry="2" fill="#9be9a8"/>
<rect x="143" y="39" width="11" height="11" rx="2" ry="2" fill="#ebedf0"/>
<rect x="156" y="39" width="11" height="11" rx="2" ry="2" fill="#ebedf0"/>
<rect x="169" y="39" width="11" height="11" rx="2" ry="2" fill="#ebedf0"/>
<rect x="182" y="39" width="11" height="11" rx="2" ry="2" fill="#9be9a8"/>
<rect x="195" y="39" width="11" height="11" rx="2" ry="2" fill="#ebedf0"/>
<rect x="208" y="39" width="11" height="11" rx="2" ry="2" fill="#ebedf0"/>
<rect x="221" y="39" width="11" height="11" rx="2" ry="2" fill="#ebedf0"/>
<rect x="234" y="39" width="11" height="11" rx="2" ry="2" fill="#ebedf0"/>
<rect x="247" y="39" width="11" height="11" rx="2" ry="2" fill="#ebedf0"/>
<rect x="260" y="39" width="11" height="11" rx="2" ry="2" fill="#40c463"/>
<rect x="273" y="39" width="11" height="11" rx="2" ry="2" fill="#ebedf0"/>
<rect x="286" y="39" width="11" height="11" rx="2" ry="2" fill="#ebedf0"/>
<rect x="299" y="39" width="11" height="11" rx="2" ry="2" fill="#9be9a8"/>
<rect x="312" y="39" width="11" height="11" rx="2" ry="2" fill="#ebedf0"/>
<rect x="325" y="39" width="11" height="11" rx="2" ry="2" fill="#9be9a8"/>
<rect x="338" y="39" width="11" height="11" rx="2" ry="2" fill="#ebedf0"/>
<rect x="351" y="39" width="11" height="11" rx="2" ry="2" fill="#ebedf0"/>
<rect x="364" y="39" width="11" height="11" rx="2" ry="2" fill="#ebedf0"/>
<rect x="377" y="39" width="11" height="11" rx="2" ry="2" fill="#ebedf0"/>
<rect x="390" y="39" width="11" height="11" rx="2" ry="2" fill="#40c463"/>
<rect x="403" y="39" width="11" height="11" rx="2" ry="2" fill="#40c463"/>
<rect x="416" y="39" width="11" height="11" rx="2" ry="2" fill="#ebedf0"/>
<rect x="429" y="39" width="11" height="11" rx="2" ry="2" fill="#40c463"/>
<rect x="442" y="39" width="11" height="11" rx="2" ry="2" fill="#9be9a8"/>
<rect x="455" y="39" width="11" height="11" rx="2" ry="2" fill="#9be9a8"/>
<rect x="468" y="39" width="11" height="11" rx="2" ry="2" fill="#30a14e"/>
<rect x="481" y="39" width="11" height="11" rx="2" ry="2" fill="#ebedf0"/>
<rect x="494" y="39" width="11" height="11" rx="2" ry="2" fill="#40c463"/>
<rect x="507" y="39" width="11" height="11" rx="2" ry="2" fill="#216e39"/>
<rect x="520" y="39" width="11" height="11" rx="2" ry="2" fill="#9be9a8"/>
<rect x="533" y="39" width="11" height="11" rx="2" ry="2" fill="#ebedf0"/>
<rect x="546" y="39" width="11" height="11" rx="2" ry="2" fill="#30a14e"/>
<rect x="559" y="39" width="11" height="11" rx="2" ry="2" fill="#ebedf0"/>
<rect x="572" y="39" width="11" height="11" rx="2" ry="2" fill="#ebedf0"/>
<rect x="585" y="39" width="11" height="11" rx="2" ry="2" fill="#40c463"/>
<rect x="598" y="39" width="11" height="11" rx="2" ry="2" fill="#9be9a8"/>
<rect x="611" y="39" width="11" height="11" rx="2" ry="2" fill="#9be9a8"/>
<rect x="624" y="39" width="11" height="11" rx="2" ry="2" fill="#216e39"/>
<rect x="637" y="39" width="11" height="11" rx="2" ry="2" fill="#40c463"/>
<rect x="650" y="39" width="11" height="11" rx="2" ry="2" fill="#ebedf0"/>
<rect x="663" y="39" width="11" height="11" rx="2" ry="2" fill="#ebedf0"/>
<rect x="676" y="39" width="11" height="11" rx="2" ry="2" fill="#9be9a8"/>
<rect x="0" y="52" width="11" height="11" rx="2" ry="2" fill="#ebedf0"/>
<rect x="13" y="52" width="11" height="11" rx="2" ry="2" fill="#9be9a8"/>
<rect x="26" y="52" width="11" height="11" rx="2" ry="2" fill="#ebedf0"/>
<rect x="39" y="52" width="11" height="11" rx="2" ry="2" fill="#ebedf0"/>
<rect x="52" y="52" width="11" height="11" rx="2" ry="2" fill="#ebedf0"/>
<rect x="65" y="52" width="11" height="11" rx="2" ry="2" fill="#9be9a8"/>
<rect x="78" y="52" width="11" height="11" rx="2" ry="2" fill="#ebedf0"/>
<rect x="91" y="52" width="11" height="11" rx="2" ry="2" fill="#ebedf0"/>
<rect x="104" y="52" width="11" height="11" rx="2" ry="2" fill="#40c463"/>
<rect x="117" y="52" width="11" height="11" rx="2" ry="2" fill="#ebedf0"/>
<rect x="130" y="52" width="11" height="11" rx="2" ry="2" fill="#9be9a8"/>
<rect x="143" y="52" width="11" height="11" rx="2" ry="2" fill="#ebedf0"/>
<rect x="156" y="52" width="11" height="11" rx="2" ry="2" fill="#ebedf0"/>
<rect x="169" y="52" width="11" height="11" rx="2" ry="2" fill="#30a14e"/>
<rect x="182" y="52" width="11" height="11" rx="2" ry="2" fill="#9be9a8"/>
<rect x="195" y="52" width="11" height="11" rx="2" ry="2" fill="#9be9a8"/>
<rect x="208" y="52" width="11" height="11" rx="2" ry="2" fill="#ebedf0"/>
<rect x="221" y="52" width="11" height="11" rx="2" ry="2" fill="#ebedf0"/>
<rect x="234" y="52" width="11" height="11" rx="2" ry="2" fill="#ebedf0"/>
<rect x="247" y="52" width="11" height="11" rx="2" ry="2" fill="#ebedf0"/>
<rect x="260" y="52" width="11" height="11" rx="2" ry="2" fill="#9be9a8"/>
<rect x="273" y="52" width="11" height="11" rx="2" ry="2" fill="#ebedf0"/>
<rect x="286" y="52" width="11" height="11" rx="2" ry="2" fill="#ebedf0"/>
<rect x="299" y="52" width="11" height="11" rx="2" ry="2" fill="#ebedf0"/>
<rect x="312" y="52" width="11" height="11" rx="2" ry="2" fill="#ebedf0"/>
<rect x="325" y="52" width="11" height="11" rx="2" ry="2" fill="#9be9a8"/>
<rect x="338" y="52" width="11" height="11" rx="2" ry="2" fill="#9be9a8"/>
<rect x="351" y="52" width="11" height="11" rx="2" ry="2" fill="#ebedf0"/>
<rect x="364" y="52" width="11" height="11" rx="2" ry="2" fill="#ebedf0"/>
<rect x="377" y="52" width="11" height="11" rx="2" ry="2" fill="#ebedf0"/>
<rect x="390" y="52" width="11" height="11" rx="2" ry="2" fill="#ebedf0"/>
<rect x="403" y="52" width="11" height="11" rx="2" ry="2" fill="#ebedf0"/>
<rect x="416" y="52" width="11" height="11" rx="2" ry="2" fill="#ebedf0"/>
<rect x="429" y="52" width="11" height="11" rx="2" ry="2" fill="#ebedf0"/>
<rect x="442" y="52" width="11" height="11" rx="2" ry="2" fill="#40c463"/>
<rect x="455" y="52" width="11" height="11" rx="2" ry="2" fill="#ebedf0"/>
<rect x="468" y="52" width="11" height="11" rx="2" ry="2" fill="#9be9a8"/>
<rect x="481" y="52" width="11" height="11" rx="2" ry="2" fill="#30a14e"/>
<rect x="494" y="52" width="11" height="11" rx="2" ry="2" fill="#30a14e"/>
<rect x="507" y="52" width="11" height="11" rx="2" ry="2" fill="#40c463"/>
<rect x="520" y="52" width="11" height="11" rx="2" ry="2" fill="#30a14e"/>
<rect x="533" y="52" width="11" height="11" rx="2" ry="2" fill="#ebedf0"/>
<rect x="546" y="52" width="11" height="11" rx="2" ry="2" fill="#9be9a8"/>
<rect x="559" y="52" width="11" height="11" rx="2" ry="2" fill="#9be9a8"/>
<rect x="572" y="52" width="11" height="11" rx="2" ry="2" fill="#9be9a8"/>
<rect x="585" y="52" width="11" height="11" rx="2" ry="2" fill="#ebedf0"/>
<rect x="598" y="52" width="11" height="11" rx="2" ry="2" fill="#9be9a8"/>
<rect x="611" y="52" width="11" height="11" rx="2" ry="2" fill="#40c463"/>
<rect x="624" y="52" width="11" height="11" rx="2" ry="2" fill="#30a14e"/>
<rect x="637" y="52" width="11" height="11" rx="2" ry="2" fill="#ebedf0"/>
<rect x="650" y="52" width="11" height="11" rx="2" ry="2" fill="#40c463"/>
<rect x="663" y="52" width="11" height="11" rx="2" ry="2" fill="#ebedf0"/>
<rect x="676" y="52" width="11" height="11" rx="2" ry="2" fill="#ebedf0"/>
<rect x="0" y="65" width="11" height="11" rx="2" ry="2" fill="#ebedf0"/>
<rect x="13" y="65" width="11" height="11" rx="2" ry="2" fill="#ebedf0"/>
<rect x="26" y="65" width="11" height="11" rx="2" ry="2" fill="#ebedf0"/>
<rect x="39" y="65" width="11" height="11" rx="2" ry="2" fill="#40c463"/>
<rect x="52" y="65" width="11" height="11" rx="2" ry="2" fill="#40c463"/>
<rect x="65" y="65" width="11" height="11" rx="2" ry="2" fill="#ebedf0"/>
<rect x="78" y="65" width="11" height="11" rx="2" ry="2" fill="#ebedf0"/>
<rect x="91" y="65" width="11" height="11" rx="2" ry="2" fill="#ebedf0"/>
<rect x="104" y="65" width="11" height="11" rx="2" ry="2" fill="#ebedf0"/>
<rect x="117" y="65" width="11" height="11" rx="2" ry="2" fill="#ebedf0"/>
<rect x="130" y="65" width="11" height="11" rx="2" ry="2" fill="#40c463"/>
<rect x="143" y="65" width="11" height="11" rx="2" ry="2" fill="#ebedf0"/>
<rect x="156" y="65" width="11" height="11" rx="2" ry="2" fill="#40c463"/>
<rect x="169" y="65" width="11" height="11" rx="2" ry="2" fill="#ebedf0"/>
<rect x="182" y="65" width="11" height="11" rx="2" ry="2" fill="#ebedf0"/>
<rect x="195" y="65" width="11" height="11" rx="2" ry="2" fill="#ebedf0"/>
<rect x="208" y="65" width="11" height="11" rx="2" ry="2" fill="#9be9a8"/>
<rect x="221" y="65" width="11" height="11" rx="2" ry="2" fill="#ebedf0"/>
<rect x="234" y="65" width="11" height="11" rx="2" ry="2" fill="#ebedf0"/>
<rect x="247" y="65" width="11" height="11" rx="2" ry="2" fill="#ebedf0"/>
<rect x="260" y="65" width="11" height="11" rx="2" ry="2" fill="#9be9a8"/>
<rect x="273" y="65" width="11" height="11" rx="2" ry="2" fill="#ebedf0"/>
<rect x="286" y="65" width="11" height="11" rx="2" ry="2" fill="#40c463"/>
<rect x="299" y="65" width="11" height="11" rx="2" ry="2" fill="#40c463"/>
<rect x="312" y="65" width="11" height="11" rx="2" ry="2" fill="#9be9a8"/>
<rect x="325" y="65" width="11" height="11" rx="2" ry="2" fill="#ebedf0"/>
<rect x="338" y="65" width="11" height="11" rx="2" ry="2" fill="#9be9a8"/>
<rect x="351" y="65" width="11" height="11" rx="2" ry="2" fill="#ebedf0"/>
<rect x="364" y="65" width="11" height="11" rx="2" ry="2" fill="#ebedf0"/>
<rect x="377" y="65" width="11" height="11" rx="2" ry="2" fill="#ebedf0"/>
<rect x="390" y="65" width="11" height="11" rx="2" ry="2" fill="#ebedf0"/>
<rect x="403" y="65" width="11" height="11" rx="2" ry="2" fill="#ebedf0"/>
<rect x="416" y="65" width="11" height="11" rx="2" ry="2" fill="#ebedf0"/>
<rect x="429" y="65" width="11" height="11" rx="2" ry="2" fill="#ebedf0"/>
<rect x="442" y="65" width="11" height="11" rx="2" ry="2" fill="#ebedf0"/>
<rect x="455" y="65" width="11" height="11" rx="2" ry="2" fill="#ebedf0"/>
<rect x="468" y="65" width="11" height="11" rx="2" ry="2" fill="#ebedf0"/>
<rect x="481" y="65" width="11" height="11" rx="2" ry="2" fill="#ebedf0"/>
<rect x="494" y="65" width="11" height="11" rx="2" ry="2" fill="#40c463"/>
<rect x="507" y="65" width="11" height="11" rx="2" ry="2" fill="#9be9a8"/>
<rect x="520" y="65" width="11" height="11" rx="2" ry="2" fill="#40c463"/>
<rect x="533" y="65" width="11" height="11" rx="2" ry="2" fill="#9be9a8"/>
<rect x="546" y="65" width="11" height="11" rx="2" ry="2" fill="#ebedf0"/>
<rect x="559" y="65" width="11" height="11" rx="2" ry="2" fill="#9be9a8"/>
<rect x="572" y="65" width="11" height="11" rx="2" ry="2" fill="#ebedf0"/>
<rect x="585" y="65" width="11" height="11" rx="2" ry="2" fill="#40c463"/>
<rect x="598" y="65" width="11" height="11" rx="2" ry="2" fill="#ebedf0"/>
<rect x="611" y="65" width="11" height="11" rx="2" ry="2" fill="#216e39"/>
<rect x="624" y="65" width="11" height="11" rx="2" ry="2" fill="#40c463"/>
<rect x="637" y="65" width="11" height="11" rx="2" ry="2" fill="#40c463"/>
<rect x="650" y="65" width="11" height="11" rx="2" ry="2" fill="#40c463"/>
<rect x="663" y="65" width="11" height="11" rx="2" ry="2" fill="#9be9a8"/>
<rect x="676" y="65" width="11" height="11" rx="2" ry="2" fill="#ebedf0"/>
<rect x="0" y="78" width="11" height="11" rx="2" ry="2" fill="#ebedf0"/>
<rect x="13" y="78" width="11" height="11" rx="2" ry="2" fill="#ebedf0"/>
<rect x="26" y="78" width="11" height="11" rx="2" ry="2" fill="#ebedf0"/>
<rect x="39" y="78" width="11" height="11" rx="2" ry="2" fill="#ebedf0"/>
<rect x="52" y="78" width="11" height="11" rx="2" ry="2" fill="#ebedf0"/>
<rect x="65" y="78" width="11" height="11" rx="2" ry="2" fill="#ebedf0"/>
<rect x="78" y="78" width="11" height="11" rx="2" ry="2" fill="#ebedf0"/>
<rect x="91" y="78" width="11" height="11" rx="2" ry="2" fill="#ebedf0"/>
<rect x="104" y="78" width="11" height="11" rx="2" ry="2" fill="#ebedf0"/>
<rect x="117" y="78" width="11" height="11" rx="2" ry="2" fill="#ebedf0"/>
<rect x="130" y="78" width="11" height="11" rx="2" ry="2" fill="#40c463"/>
<rect x="143" y="78" width="11" height="11" rx="2" ry="2" fill="#ebedf0"/>
<rect x="156" y="78" width="11" height="11" rx="2" ry="2" fill="#ebedf0"/>
<rect x="169" y="78" width="11" height="11" rx="2" ry="2" fill="#9be9a8"/>
<rect x="182" y="78" width="11" height="11" rx="2" ry="2" fill="#ebedf0"/>
<rect x="195" y="78" width="11" height="11" rx="2" ry="2" fill="#9be9a8"/>
<rect x="208" y="78" width="11" height="11" rx="2" ry="2" fill="#9be9a8"/>
<rect x="221" y="78" width="11" height="11" rx="2" ry="2" fill="#ebedf0"/>
<rect x="234" y="78" width="11" height="11" rx="2" ry="2" fill="#9be9a8"/>
<rect x="247" y="78" width="11" height="11" rx="2" ry="2" fill="#9be9a8"/>
<rect x="260" y="78" width="11" height="11" rx="2" ry="2" fill="#ebedf0"/>
<rect x="273" y="78" width="11" height="11" rx="2" ry="2" fill="#ebedf0"/>
<rect x="286" y="78" width="11" height="11" rx="2" ry="2" fill="#ebedf0"/>
<rect x="299" y="78" width="11" height="11" rx="2" ry="2" fill="#9be9a8"/>
<rect x="312" y="78" width="11" height="11" rx="2" ry="2" fill="#9be9a8"/>
<rect x="325" y="78" width="11" height="11" rx="2" ry="2" fill="#ebedf0"/>
<rect x="338" y="78" width="11" height="11" rx="2" ry="2" fill="#ebedf0"/>
<rect x="351" y="78" width="11" height="11" rx="2" ry="2" fill="#30a14e"/>
<rect x="364" y="78" width="11" height="11" rx="2" ry="2" fill="#ebedf0"/>
<rect x="377" y="78" width="11" height="11" rx="2" ry="2" fill="#9be9a8"/>
<rect x="390" y="78" width="11" height="11" rx="2" ry="2" fill="#40c463"/>
<rect x="403" y="78" width="11" height="11" rx="2" ry="2" fill="#ebedf0"/>
<rect x="416" y="78" width="11" height="11" rx="2" ry="2" fill="#ebedf0"/>
<rect x="429" y="78" width="11" height="11" rx="2" ry="2" fill="#ebedf0"/>
<rect x="442" y="78" width="11" height="11" rx="2" ry="2" fill="#ebedf0"/>
<rect x="455" y="78" width="11" height="11" rx="2" ry="2" fill="#9be9a8"/>
<rect x="468" y="78" width="11" height="11" rx="2" ry="2" fill="#ebedf0"/>
<rect x="481" y="78" width="11" height="11" rx="2" ry="2" fill="#ebedf0"/>
<rect x="494" y="78" width="11" height="11" rx="2" ry="2" fill="#ebedf0"/>
<rect x="507" y="78" width="11" height="11" rx="2" ry="2" fill="#9be9a8"/>
<rect x="520" y="78" width="11" height="11" rx="2" ry="2" fill="#9be9a8"/>
<rect x="533" y="78" width="11" height="11" rx="2" ry="2" fill="#30a14e"/>
<rect x="546" y="78" width="11" height="11" rx="2" ry="2" fill="#30a14e"/>
<rect x="559" y="78" width="11" height="11" rx="2" ry="2" fill="#216e39"/>
<rect x="572" y="78" width="11" height="11" rx="2" ry="2" fill="#9be9a8"/>
<rect x="585" y="78" width="11" height="11" rx="2" ry="2" fill="#40c463"/>
<rect x="598" y="78" width="11" height="11" rx="2" ry="2" fill="#40c463"/>
<rect x="611" y="78" width="11" height="11" rx="2" ry="2" fill="#30a14e"/>
<rect x="624" y="78" width="11" height="11" rx="2" ry="2" fill="#40c463"/>
<rect x="637" y="78" width="11" height="11" rx="2" ry="2" fill="#9be9a8"/>
<rect x="650" y="78" width="11" height="11" rx="2" ry="2" fill="#ebedf0"/>
<rect x="663" y="78" width="11" height="11" rx="2" ry="2" fill="#9be9a8"/>
<rect x="676" y="78" width="11" height="11" rx="2" ry="2" fill="#ebedf0"/>
</g>
<g id="trail">
<rect x="0" y="39" width="11" height="11" rx="2" ry="2" fill="#216e39" opacity="0"><animate attributeName="opacity" dur="7.5s" repeatCount="indefinite" values="0;0;0.7;0;0" keyTimes="0.0000;0.0071;0.0081;0.0581;1.0000"/></rect>
<rect x="13" y="39" width="11" height="11" rx="2" ry="2" fill="#216e39" opacity="0"><animate attributeName="opacity" dur="7.5s" repeatCount="indefinite" values="0;0;0.7;0;0" keyTimes="0.0000;0.0151;0.0161;0.0661;1.0000"/></rect>
<rect x="26" y="39" width="11" height="11" rx="2" ry="2" fill="#216e39" opacity="0"><animate attributeName="opacity" dur="7.5s" repeatCount="indefinite" values="0;0;0.7;0;0" keyTimes="0.0000;0.0231;0.0241;0.0741;1.0000"/></rect>
<rect x="39" y="39" width="11" height="11" rx="2" ry="2" fill="#216e39" opacity="0"><animate attributeName="opacity" dur="7.5s" repeatCount="indefinite" values="0;0;0.7;0;0" keyTimes="0.0000;0.0311;0.0321;0.0821;1.0000"/></rect>
<rect x="52" y="39" width="11" height="11" rx="2" ry="2" fill="#216e39" opacity="0"><animate attributeName="opacity" dur="7.5s" repeatCount="indefinite" values="0;0;0.7;0;0" keyTimes="0.0000;0.0393;0.0403;0.0903;1.0000"/></rect>
<rect x="65" y="39" width="11" height="11" rx="2" ry="2" fill="#216e39" opacity="0"><animate attributeName="opacity" dur="7.5s" repeatCount="indefinite" values="0;0;0.7;0;0" keyTimes="0.0000;0.0476;0.0486;0.0986;1.0000"/></rect>
<rect x="78" y="39" width="11" height="11" rx="2" ry="2" fill="#216e39" opacity="0"><animate attributeName="opacity" dur="7.5s" repeatCount="indefinite" values="0;0;0.7;0;0" keyTimes="0.0000;0.0559;0.0569;0.1069;1.0000"/></rect>
<rect x="91" y="39" width="11" height="11" rx="2" ry="2" fill="#216e39" opacity="0"><animate attributeName="opacity" dur="7.5s" repeatCount="indefinite" values="0;0;0.7;0;0" keyTimes="0.0000;0.0644;0.0654;0.1154;1.0000"/></rect>
<rect x="104" y="39" width="11" height="11" rx="2" ry="2" fill="#216e39" opacity="0"><animate attributeName="opacity" dur="7.5s" repeatCount="indefinite" values="0;0;0.7;0;0" keyTimes="0.0000;0.0730;0.0740;0.1240;1.0000"/></rect>
<rect x="117" y="39" width="11" height="11" rx="2" ry="2" fill="#216e39" opacity="0"><animate attributeName="opacity" dur="7.5s" repeatCount="indefinite" values="0;0;0.7;0;0" keyTimes="0.0000;0.0816;0.0826;0.1326;1.0000"/></rect>
<rect x="130" y="39" width="11" height="11" rx="2" ry="2" fill="#216e39" opacity="0"><animate attributeName="opacity" dur="7.5s" repeatCount="indefinite" values="0;0;0.7;0;0" keyTimes="0.0000;0.0904;0.0914;0.1414;1.0000"/></rect>
<rect x="143" y="39" width="11" height="11" rx="2" ry="2" fill="#216e39" opacity="0"><animate attributeName="opacity" dur="7.5s" repeatCount="indefinite" values="0;0;0.7;0;0" keyTimes="0.0000;0.0993;0.1003;0.1503;1.0000"/></rect>
<rect x="156" y="39" width="11" height="11" rx="2" ry="2" fill="#216e39" opacity="0"><animate attributeName="opacity" dur="7.5s" repeatCount="indefinite" values="0;0;0.7;0;0" keyTimes="0.0000;0.1083;0.1093;0.1593;1.0000"/></rect>
<rect x="169" y="39" width="11" height="11" rx="2" ry="2" fill="#216e39" opacity="0"><animate attributeName="opacity" dur="7.5s" repeatCount="indefinite" values="0;0;0.7;0;0" keyTimes="0.0000;0.1174;0.1184;0.1684;1.0000"/></rect>
<rect x="182" y="39" width="11" height="11" rx="2" ry="2" fill="#216e39" opacity="0"><animate attributeName="opacity" dur="7.5s" repeatCount="indefinite" values="0;0;0.7;0;0" keyTimes="0.0000;0.1267;0.1277;0.1777;1.0000"/></rect>
<rect x="195" y="39" width="11" height="11" rx="2" ry="2" fill="#216e39" opacity="0"><animate attributeName="opacity" dur="7.5s" repeatCount="indefinite" values="0;0;0.7;0;0" keyTimes="0.0000;0.1360;0.1370;0.1870;1.0000"/></rect>
<rect x="208" y="39" width="11" height="11" rx="2" ry="2" fill="#216e39" opacity="0"><animate attributeName="opacity" dur="7.5s" repeatCount="indefinite" values="0;0;0.7;0;0" keyTimes="0.0000;0.1456;0.1466;0.1966;1.0000"/></rect>
<rect x="221" y="39" width="11" height="11" rx="2" ry="2" fill="#216e39" opacity="0"><animate attributeName="opacity" dur="7.5s" repeatCount="indefinite" values="0;0;0.7;0;0" keyTimes="0.0000;0.1552;0.1562;0.2062;1.0000"/></rect>
<rect x="234" y="39" width="11" height="11" rx="2" ry="2" fill="#216e39" opacity="0"><animate attributeName="opacity" dur="7.5s" repeatCount="indefinite" values="0;0;0.7;0;0" keyTimes="0.0000;0.1651;0.1661;0.2161;1.0000"/></rect>
<rect x="247" y="39" width="11" height="11" rx="2" ry="2" fill="#216e39" opacity="0"><animate attributeName="opacity" dur="7.5s" repeatCount="indefinite" values="0;0;0.7;0;0" keyTimes="0.0000;0.1750;0.1760;0.2260;1.0000"/></rect>
<rect x="260" y="39" width="11" height="11" rx="2" ry="2" fill="#216e39" opacity="0"><animate attributeName="opacity" dur="7.5s" repeatCount="indefinite" values="0;0;0.7;0;0" keyTimes="0.0000;0.1852;0.1862;0.2362;1.0000"/></rect>
<rect x="273" y="39" width="11" height="11" rx="2" ry="2" fill="#216e39" opacity="0"><animate attributeName="opacity" dur="7.5s" repeatCount="indefinite" values="0;0;0.7;0;0" keyTimes="0.0000;0.1955;0.1965;0.2465;1.0000"/></rect>
<rect x="286" y="39" width="11" height="11" rx="2" ry="2" fill="#216e39" opacity="0"><animate attributeName="opacity" dur="7.5s" repeatCount="indefinite" values="0;0;0.7;0;0" keyTimes="0.0000;0.2060;0.2070;0.2570;1.0000"/></rect>
<rect x="299" y="39" width="11" height="11" rx="2" ry="2" fill="#216e39" opacity="0"><animate attributeName="opacity" dur="7.5s" repeatCount="indefinite" values="0;0;0.7;0;0" keyTimes="0.0000;0.2168;0.2178;0.2678;1.0000"/></rect>
<rect x="312" y="39" width="11" height="11" rx="2" ry="2" fill="#216e39" opacity="0"><animate attributeName="opacity" dur="7.5s" repeatCount="indefinite" values="0;0;0.7;0;0" keyTimes="0.0000;0.2277;0.2287;0.2787;1.0000"/></rect>
<rect x="325" y="39" width="11" height="11" rx="2" ry="2" fill="#216e39" opacity="0"><animate attributeName="opacity" dur="7.5s" repeatCount="indefinite" values="0;0;0.7;0;0" keyTimes="0.0000;0.2388;0.2398;0.2898;1.0000"/></rect>
<rect x="338" y="39" width="11" height="11" rx="2" ry="2" fill="#216e39" opacity="0"><animate attributeName="opacity" dur="7.5s" repeatCount="indefinite" values="0;0;0.7;0;0" keyTimes="0.0000;0.2502;0.2512;0.3012;1.0000"/></rect>
<rect x="351" y="39" width="11" height="11" rx="2" ry="2" fill="#216e39" opacity="0"><animate attributeName="opacity" dur="7.5s" repeatCount="indefinite" values="0;0;0.7;0;0" keyTimes="0.0000;0.2618;0.2628;0.3128;1.0000"/></rect>
<rect x="364" y="39" width="11" height="11" rx="2" ry="2" fill="#216e39" opacity="0"><animate attributeName="opacity" dur="7.5s" repeatCount="indefinite" values="0;0;0.7;0;0" keyTimes="0.0000;0.2737;0.2747;0.3247;1.0000"/></rect>
<rect x="377" y="39" width="11" height="11" rx="2" ry="2" fill="#216e39" opacity="0"><animate attributeName="opacity" dur="7.5s" repeatCount="indefinite" values="0;0;0.7;0;0" keyTimes="0.0000;0.2859;0.2869;0.3369;1.0000"/></rect>
<rect x="390" y="39" width="11" height="11" rx="2" ry="2" fill="#216e39" opacity="0"><animate attributeName="opacity" dur="7.5s" repeatCount="indefinite" values="0;0;0.7;0;0" keyTimes="0.0000;0.2984;0.2994;0.3494;1.0000"/></rect>
<rect x="403" y="39" width="11" height="11" rx="2" ry="2" fill="#216e39" opacity="0"><animate attributeName="opacity" dur="7.5s" repeatCount="indefinite" values="0;0;0.7;0;0" keyTimes="0.0000;0.3112;0.3122;0.3622;1.0000"/></rect>
<rect x="416" y="39" width="11" height="11" rx="2" ry="2" fill="#216e39" opacity="0"><animate attributeName="opacity" dur="7.5s" repeatCount="indefinite" values="0;0;0.7;0;0" keyTimes="0.0000;0.3244;0.3254;0.3754;1.0000"/></rect>
<rect x="429" y="39" width="11" height="11" rx="2" ry="2" fill="#216e39" opacity="0"><animate attributeName="opacity" dur="7.5s" repeatCount="indefinite" values="0;0;0.7;0;0" keyTimes="0.0000;0.3379;0.3389;0.3889;1.0000"/></rect>
<rect x="442" y="39" width="11" height="11" rx="2" ry="2" fill="#216e39" opacity="0"><animate attributeName="opacity" dur="7.5s" repeatCount="indefinite" values="0;0;0.7;0;0" keyTimes="0.0000;0.3519;0.3529;0.4029;1.0000"/></rect>
<rect x="455" y="39" width="11" height="11" rx="2" ry="2" fill="#216e39" opacity="0"><animate attributeName="opacity" dur="7.5s" repeatCount="indefinite" values="0;0;0.7;0;0" keyTimes="0.0000;0.3664;0.3674;0.4174;1.0000"/></rect>
<rect x="468" y="39" width="11" height="11" rx="2" ry="2" fill="#216e39" opacity="0"><animate attributeName="opacity" dur="7.5s" repeatCount="indefinite" values="0;0;0.7;0;0" keyTimes="0.0000;0.3814;0.3824;0.4324;1.0000"/></rect>
<rect x="481" y="39" width="11" height="11" rx="2" ry="2" fill="#216e39" opacity="0"><animate attributeName="opacity" dur="7.5s" repeatCount="indefinite" values="0;0;0.7;0;0" keyTimes="0.0000;0.3970;0.3980;0.4480;1.0000"/></rect>
<rect x="494" y="39" width="11" height="11" rx="2" ry="2" fill="#216e39" opacity="0"><animate attributeName="opacity" dur="7.5s" repeatCount="indefinite" values="0;0;0.7;0;0" keyTimes="0.0000;0.4133;0.4143;0.4643;1.0000"/></rect>
<rect x="507" y="39" width="11" height="11" rx="2" ry="2" fill="#216e39" opacity="0"><animate attributeName="opacity" dur="7.5s" repeatCount="indefinite" values="0;0;0.7;0;0" keyTimes="0.0000;0.4303;0.4313;0.4813;1.0000"/></rect>
<rect x="520" y="39" width="11" height="11" rx="2" ry="2" fill="#216e39" opacity="0"><animate attributeName="opacity" dur="7.5s" repeatCount="indefinite" values="0;0;0.7;0;0" keyTimes="0.0000;0.4482;0.4492;0.4992;1.0000"/></rect>
<rect x="533" y="39" width="11" height="11" rx="2" ry="2" fill="#216e39" opacity="0"><animate attributeName="opacity" dur="7.5s" repeatCount="indefinite" values="0;0;0.7;0;0" keyTimes="0.0000;0.4671;0.4681;0.5181;1.0000"/></rect>
<rect x="546" y="39" width="11" height="11" rx="2" ry="2" fill="#216e39" opacity="0"><animate attributeName="opacity" dur="7.5s" repeatCount="indefinite" values="0;0;0.7;0;0" keyTimes="0.0000;0.4873;0.4883;0.5383;1.0000"/></rect>
<rect x="559" y="39" width="11" height="11" rx="2" ry="2" fill="#216e39" opacity="0"><animate attributeName="opacity" dur="7.5s" repeatCount="indefinite" values="0;0;0.7;0;0" keyTimes="0.0000;0.5089;0.5099;0.5599;1.0000"/></rect>
<rect x="572" y="39" width="11" height="11" rx="2" ry="2" fill="#216e39" opacity="0"><animate attributeName="opacity" dur="7.5s" repeatCount="indefinite" values="0;0;0.7;0;0" keyTimes="0.0000;0.5324;0.5334;0.5834;1.0000"/></rect>
<rect x="585" y="39" width="11" height="11" rx="2" ry="2" fill="#216e39" opacity="0"><animate attributeName="opacity" dur="7.5s" repeatCount="indefinite" values="0;0;0.7;0;0" keyTimes="0.0000;0.5585;0.5595;0.6095;1.0000"/></rect>
<rect x="598" y="39" width="11" height="11" rx="2" ry="2" fill="#216e39" opacity="0"><animate attributeName="opacity" dur="7.5s" repeatCount="indefinite" values="0;0;0.7;0;0" keyTimes="0.0000;0.5880;0.5890;0.6390;1.0000"/></rect>
<rect x="611" y="39" width="11" height="11" rx="2" ry="2" fill="#216e39" opacity="0"><animate attributeName="opacity" dur="7.5s" repeatCount="indefinite" values="0;0;0.7;0;0" keyTimes="0.0000;0.6231;0.6241;0.6741;1.0000"/></rect>
<rect x="624" y="39" width="11" height="11" rx="2" ry="2" fill="#216e39" opacity="0"><animate attributeName="opacity" dur="7.5s" repeatCount="indefinite" values="0;0;0.7;0;0" keyTimes="0.0000;0.6687;0.6697;0.7197;1.0000"/></rect>
</g>
<g id="hole">
<ellipse cx="642.5" cy="47.5" rx="6" ry="2" fill="rgba(0,0,0,0.12)"/>
<circle cx="642.5" cy="44.5" r="5" fill="#1a1a1a"/>
<line x1="642.5" y1="44.5" x2="642.5" y2="22.5" stroke="#1f2328" stroke-width="1.2"/>
<path d="M 642.5 22.5 L 652.5 25.5 L 642.5 28.5 Z" fill="#cf222e"/>
</g>
<g id="ball">
<circle cx="-8" cy="44.5" r="4.6" fill="#ffffff" stroke="#bbbbbb" stroke-width="0.6">
<animate attributeName="cx" dur="7.5s" repeatCount="indefinite" values="-8.00;81.61;164.58;240.92;310.61;373.67;430.09;479.88;523.02;559.53;589.40;612.63;629.22;639.18;642.50;642.50;642.50" keyTimes="0.0000;0.0557;0.1114;0.1671;0.2229;0.2786;0.3343;0.3900;0.4457;0.5014;0.5571;0.6129;0.6686;0.7243;0.7800;0.8600;1"/>
<animate attributeName="opacity" dur="7.5s" repeatCount="indefinite" values="1;1;1;0;0" keyTimes="0;0.86;0.90;0.95;1"/>
<animate attributeName="r" dur="7.5s" repeatCount="indefinite" values="4.6;4.6;4.6;1.5;0" keyTimes="0;0.86;0.90;0.95;1"/>
</circle>
</g>
</svg>